<svg width="144" height="103" viewBox="0 0 144 103" fill="none" xmlns="http://www.w3.org/2000/svg">
<g style="mix-blend-mode:multiply">
<path d="M81.8323 25.7201C67.5736 39.9249 67.5261 62.9079 81.7261 77.0542L133.361 25.6143C119.161 11.468 96.091 11.5154 81.8323 25.7201Z" fill="#0458FE"/>
</g>
<mask id="mask0_357:298" style="mask-type:alpha" maskUnits="userSpaceOnUse" x="71" y="15" width="63" height="63">
<g style="mix-blend-mode:multiply">
<path d="M81.8323 25.7218C67.5736 39.9266 67.5261 62.9096 81.7261 77.0559L133.361 25.616C119.161 11.4697 96.091 11.5171 81.8323 25.7218Z" fill="#0458FE"/>
</g>
</mask>
<g mask="url(#mask0_357:298)">
<rect width="3.43101" height="113.787" transform="matrix(0.708445 0.705766 -0.708445 0.705766 134.468 14.9707)" fill="#DEECFF"/>
<rect width="3.43101" height="113.787" transform="matrix(0.708445 0.705766 -0.708445 0.705766 114.937 5.84985)" fill="#DEECFF"/>
<rect width="3.43101" height="113.787" transform="matrix(0.708445 0.705766 -0.708445 0.705766 127.891 11.9636)" fill="#DEECFF"/>
<rect width="3.43101" height="113.787" transform="matrix(0.708445 0.705766 -0.708445 0.705766 108.767 2.43896)" fill="#DEECFF"/>
<rect width="3.43101" height="113.787" transform="matrix(0.708445 0.705766 -0.708445 0.705766 120.833 9.54224)" fill="#DEECFF"/>
</g>
<g style="mix-blend-mode:multiply">
<path d="M81.8328 77.2799C96.0915 91.4846 119.162 91.532 133.362 77.3857L81.7266 25.9458C67.5266 40.0921 67.5741 63.0751 81.8328 77.2799Z" fill="#0458FE"/>
</g>
<path d="M64.924 51.5005H21.789C11.427 51.5005 3.03467 43.3166 3.03467 33.2346C3.03467 23.1425 11.4374 14.9688 21.789 14.9688H64.924V51.5005Z" fill="#FF1F55"/>
<g style="mix-blend-mode:multiply">
<path d="M5.2788e-05 51.5031L43.0158 51.5031C53.3492 51.5031 61.7183 59.6644 61.7183 69.7185C61.7183 79.7827 53.3387 87.9338 43.0158 87.9338L4.95911e-05 87.9338L5.2788e-05 51.5031Z" fill="#0458FE"/>
</g>
<path d="M107.414 51.5029C127.543 51.5029 144 67.821 144 87.9505H107.414V51.5029Z" fill="#FF1F55"/>
<rect x="25.1504" y="51.5029" width="36.5681" height="36.4298" rx="18.2149" fill="#001EFD"/>
<rect x="28.6226" y="54.9612" width="29.6244" height="29.5123" rx="14.7562" fill="#0458FE"/>
<rect x="32.2212" y="58.5449" width="22.4265" height="22.3416" rx="11.1708" fill="#001EFD"/>
<rect x="35.9375" y="62.249" width="14.9946" height="14.9379" rx="7.46895" fill="#0458FE"/>
<rect x="39.5498" y="65.8462" width="7.76919" height="7.7398" rx="3.8699" fill="#001EFD"/>
<rect x="3.08496" y="14.9688" width="36.6713" height="36.5326" rx="18.2663" fill="#E11646"/>
<rect x="6.6084" y="18.4802" width="29.6244" height="29.5123" rx="14.7562" fill="#FF1F55"/>
<rect x="10.207" y="22.0642" width="22.4265" height="22.3416" rx="11.1708" fill="#E11646"/>
<rect x="13.9238" y="25.7676" width="14.9946" height="14.9379" rx="7.46895" fill="#FF1F55"/>
<rect x="17.5361" y="29.365" width="7.76919" height="7.7398" rx="3.8699" fill="#E11646"/>
</svg>
