<svg width="21" height="23" viewBox="0 0 21 23" fill="none" xmlns="http://www.w3.org/2000/svg">
<path d="M15.64 10.1201H4.60001C4.47801 10.1201 4.36101 10.0717 4.27474 9.98541C4.18847 9.89915 4.14001 9.78214 4.14001 9.66014C4.14001 9.41614 4.04308 9.18214 3.87055 9.0096C3.69801 8.83707 3.46401 8.74014 3.22001 8.74014C3.09801 8.74014 2.98101 8.69168 2.89474 8.60541C2.80847 8.51915 2.76001 8.40214 2.76001 8.28014V3.68015C2.76001 3.55815 2.80847 3.44115 2.89474 3.35488C2.98101 3.26861 3.09801 3.22015 3.22001 3.22015C3.46401 3.22015 3.69801 3.12322 3.87055 2.95069C4.04308 2.77815 4.14001 2.54415 4.14001 2.30015C4.14001 2.17815 4.18847 2.06115 4.27474 1.97488C4.36101 1.88861 4.47801 1.84015 4.60001 1.84015H15.64C15.762 1.84015 15.879 1.88861 15.9653 1.97488C16.0515 2.06115 16.1 2.17815 16.1 2.30015C16.1 2.54415 16.1969 2.77815 16.3695 2.95069C16.542 3.12322 16.776 3.22015 17.02 3.22015C17.142 3.22015 17.259 3.26861 17.3453 3.35488C17.4315 3.44115 17.48 3.55815 17.48 3.68015V8.28014C17.48 8.40214 17.4315 8.51915 17.3453 8.60541C17.259 8.69168 17.142 8.74014 17.02 8.74014C16.776 8.74014 16.542 8.83707 16.3695 9.0096C16.1969 9.18214 16.1 9.41614 16.1 9.66014C16.1 9.78214 16.0515 9.89915 15.9653 9.98541C15.879 10.0717 15.762 10.1201 15.64 10.1201ZM5.00021 9.20014H15.2398C15.3221 8.88232 15.4879 8.5923 15.72 8.36016C15.9522 8.12802 16.2422 7.96221 16.56 7.87994V4.08035C16.2422 3.99808 15.9522 3.83227 15.72 3.60013C15.4879 3.36799 15.3221 3.07797 15.2398 2.76015H5.00021C4.91794 3.07797 4.75214 3.36799 4.51999 3.60013C4.28785 3.83227 3.99783 3.99808 3.68001 4.08035V7.87994C3.99783 7.96221 4.28785 8.12802 4.51999 8.36016C4.75214 8.5923 4.91794 8.88232 5.00021 9.20014Z" fill="#D9D9D9"/>
<path d="M10.121 8.27953C9.66615 8.27953 9.22147 8.14464 8.84323 7.89191C8.465 7.63919 8.1702 7.27998 7.99612 6.85971C7.82204 6.43944 7.77649 5.97698 7.86524 5.53083C7.95399 5.08467 8.17304 4.67485 8.4947 4.35319C8.81636 4.03153 9.22618 3.81248 9.67234 3.72373C10.1185 3.63498 10.5809 3.68053 11.0012 3.85461C11.4215 4.02869 11.7807 4.32349 12.0334 4.70172C12.2861 5.07996 12.421 5.52464 12.421 5.97953C12.421 6.58953 12.1787 7.17455 11.7474 7.60588C11.3161 8.03721 10.731 8.27953 10.121 8.27953ZM10.121 4.59954C9.84811 4.59954 9.5813 4.68047 9.35436 4.83211C9.12742 4.98374 8.95054 5.19927 8.84609 5.45143C8.74164 5.70359 8.71431 5.98107 8.76756 6.24876C8.82081 6.51645 8.95224 6.76234 9.14524 6.95534C9.33823 7.14834 9.58413 7.27977 9.85182 7.33302C10.1195 7.38626 10.397 7.35894 10.6491 7.25449C10.9013 7.15004 11.1168 6.97316 11.2685 6.74622C11.4201 6.51928 11.501 6.25247 11.501 5.97953C11.501 5.61354 11.3557 5.26253 11.0969 5.00373C10.8381 4.74493 10.487 4.59954 10.121 4.59954Z" fill="#D9D9D9"/>
<path d="M5.98128 6.89942C5.79932 6.89942 5.62145 6.84546 5.47015 6.74437C5.31886 6.64328 5.20094 6.49959 5.13131 6.33149C5.06168 6.16338 5.04346 5.9784 5.07896 5.79993C5.11446 5.62147 5.20208 5.45754 5.33074 5.32888C5.45941 5.20022 5.62333 5.11259 5.8018 5.0771C5.98026 5.0416 6.16524 5.05982 6.33335 5.12945C6.50146 5.19908 6.64514 5.317 6.74623 5.46829C6.84732 5.61959 6.90128 5.79746 6.90128 5.97942C6.90128 6.22342 6.80435 6.45742 6.63182 6.62996C6.45928 6.80249 6.22528 6.89942 5.98128 6.89942Z" fill="#D9D9D9"/>
<path d="M14.2601 6.89963C14.0781 6.89963 13.9003 6.84567 13.749 6.74458C13.5977 6.64349 13.4798 6.49981 13.4101 6.3317C13.3405 6.16359 13.3223 5.97861 13.3578 5.80015C13.3933 5.62169 13.4809 5.45776 13.6095 5.32909C13.7382 5.20043 13.9021 5.11281 14.0806 5.07731C14.2591 5.04181 14.444 5.06003 14.6122 5.12966C14.7803 5.1993 14.9239 5.31721 15.025 5.46851C15.1261 5.6198 15.1801 5.79767 15.1801 5.97963C15.1801 6.22363 15.0832 6.45764 14.9106 6.63017C14.7381 6.8027 14.5041 6.89963 14.2601 6.89963Z" fill="#D9D9D9"/>
<path d="M7.81999 18.4001H5.06C3.718 18.4001 2.43097 17.867 1.48204 16.9181C0.533105 15.9691 0 14.6821 0 13.3401C0 13.2181 0.0484642 13.1011 0.134731 13.0148C0.220998 12.9286 0.338 12.8801 0.46 12.8801H3.22C4.56199 12.8801 5.84902 13.4132 6.79796 14.3621C7.74689 15.3111 8.27999 16.5981 8.27999 17.9401C8.27999 18.0621 8.23153 18.1791 8.14526 18.2654C8.059 18.3516 7.94199 18.4001 7.81999 18.4001ZM0.947599 13.8001C1.06071 14.8118 1.54261 15.7464 2.30123 16.4252C3.05985 17.1041 4.04199 17.4796 5.06 17.4801H7.33239C7.21928 16.4684 6.73738 15.5338 5.97876 14.855C5.22015 14.1761 4.238 13.8006 3.22 13.8001H0.947599Z" fill="#D9D9D9"/>
<path d="M15.1817 19.3201H12.4217C12.2997 19.3201 12.1827 19.2717 12.0964 19.1854C12.0101 19.0991 11.9617 18.9821 11.9617 18.8601C11.9617 17.5181 12.4948 16.2311 13.4437 15.2822C14.3926 14.3332 15.6797 13.8001 17.0217 13.8001H19.7817C19.9037 13.8001 20.0207 13.8486 20.1069 13.9349C20.1932 14.0211 20.2417 14.1381 20.2417 14.2601C20.2417 14.9246 20.1108 15.5826 19.8565 16.1965C19.6022 16.8104 19.2295 17.3682 18.7596 17.8381C18.2898 18.308 17.732 18.6807 17.118 18.935C16.5041 19.1893 15.8462 19.3201 15.1817 19.3201ZM12.9093 18.4001H15.1817C16.1997 18.3997 17.1818 18.0241 17.9404 17.3453C18.699 16.6664 19.181 15.7318 19.2941 14.7201H17.0217C16.0037 14.7206 15.0215 15.0962 14.2629 15.775C13.5043 16.4539 13.0224 17.3884 12.9093 18.4001Z" fill="#D9D9D9"/>
<path d="M10.1199 13.34C9.99792 13.34 9.88091 13.2915 9.79465 13.2053C9.70838 13.119 9.65991 13.002 9.65991 12.88C9.65991 12.636 9.56299 12.402 9.39045 12.2295C9.21792 12.0569 8.98391 11.96 8.73992 11.96H3.21992C2.60992 11.96 2.02491 11.7177 1.59358 11.2863C1.16224 10.855 0.919922 10.27 0.919922 9.65999V2.3C0.919922 1.69 1.16224 1.10499 1.59358 0.673654C2.02491 0.242321 2.60992 0 3.21992 0H17.0199C17.6299 0 18.2149 0.242321 18.6463 0.673654C19.0776 1.10499 19.3199 1.69 19.3199 2.3V9.65999C19.3199 10.27 19.0776 10.855 18.6463 11.2863C18.2149 11.7177 17.6299 11.96 17.0199 11.96H11.4999C11.2559 11.96 11.0219 12.0569 10.8494 12.2295C10.6768 12.402 10.5799 12.636 10.5799 12.88C10.5799 13.002 10.5315 13.119 10.4452 13.2053C10.3589 13.2915 10.2419 13.34 10.1199 13.34ZM3.21992 0.919999C2.85392 0.919999 2.50291 1.06539 2.24411 1.32419C1.98531 1.58299 1.83992 1.934 1.83992 2.3V9.65999C1.83992 10.026 1.98531 10.377 2.24411 10.6358C2.50291 10.8946 2.85392 11.04 3.21992 11.04H8.73992C8.98162 11.0398 9.22099 11.0872 9.44436 11.1796C9.66773 11.2719 9.87071 11.4074 10.0417 11.5782L10.1199 11.6656C10.2923 11.4693 10.5046 11.312 10.7425 11.2042C10.9805 11.0963 11.2387 11.0403 11.4999 11.04H17.0199C17.3859 11.04 17.7369 10.8946 17.9957 10.6358C18.2545 10.377 18.3999 10.026 18.3999 9.65999V2.3C18.3999 1.934 18.2545 1.58299 17.9957 1.32419C17.7369 1.06539 17.3859 0.919999 17.0199 0.919999H3.21992Z" fill="#D9D9D9"/>
<path d="M10.1201 21.7629C9.99811 21.7629 9.8811 21.7144 9.79484 21.6282C9.70857 21.5419 9.66011 21.4249 9.66011 21.3029V20.2403C9.66011 19.7523 9.46625 19.2843 9.12118 18.9392C8.77612 18.5942 8.3081 18.4003 7.82011 18.4003C7.69811 18.4003 7.5811 18.3519 7.49484 18.2656C7.40857 18.1793 7.36011 18.0623 7.36011 17.9403C7.36011 17.8183 7.40857 17.7013 7.49484 17.615C7.5811 17.5288 7.69811 17.4803 7.82011 17.4803C8.5521 17.4803 9.25412 17.7711 9.77172 18.2887C10.2893 18.8063 10.5801 19.5083 10.5801 20.2403V21.3029C10.5801 21.4249 10.5316 21.5419 10.4454 21.6282C10.3591 21.7144 10.2421 21.7629 10.1201 21.7629Z" fill="#D9D9D9"/>
<path d="M10.12 21.6201C9.99803 21.6201 9.88103 21.5716 9.79476 21.4854C9.7085 21.3991 9.66003 21.2821 9.66003 21.1601C9.66003 20.4281 9.95082 19.7261 10.4684 19.2085C10.986 18.6909 11.688 18.4001 12.42 18.4001C12.542 18.4001 12.659 18.4485 12.7453 18.5348C12.8316 18.6211 12.88 18.7381 12.88 18.8601C12.88 18.9821 12.8316 19.0991 12.7453 19.1854C12.659 19.2716 12.542 19.3201 12.42 19.3201C11.932 19.3201 11.464 19.5139 11.119 19.859C10.7739 20.2041 10.58 20.6721 10.58 21.1601C10.58 21.2821 10.5316 21.3991 10.4453 21.4854C10.359 21.5716 10.242 21.6201 10.12 21.6201Z" fill="#D9D9D9"/>
<path d="M10.12 21.6198C9.99803 21.6198 9.88103 21.5713 9.79476 21.485C9.7085 21.3988 9.66003 21.2818 9.66003 21.1598V12.8798C9.66003 12.7578 9.7085 12.6408 9.79476 12.5545C9.88103 12.4682 9.99803 12.4198 10.12 12.4198C10.242 12.4198 10.359 12.4682 10.4453 12.5545C10.5316 12.6408 10.58 12.7578 10.58 12.8798V21.1598C10.58 21.2818 10.5316 21.3988 10.4453 21.485C10.359 21.5713 10.242 21.6198 10.12 21.6198Z" fill="#D9D9D9"/>
<path d="M15.1803 23H11.5003C11.2391 22.9997 10.9809 22.9437 10.743 22.8359C10.505 22.728 10.2928 22.5707 10.1203 22.3744C9.94791 22.5707 9.73567 22.728 9.49772 22.8359C9.25978 22.9437 9.00159 22.9997 8.74034 23H5.06034C4.93834 23 4.82134 22.9516 4.73507 22.8653C4.64881 22.779 4.60034 22.662 4.60034 22.54C4.60034 22.418 4.64881 22.301 4.73507 22.2148C4.82134 22.1285 4.93834 22.08 5.06034 22.08H8.74034C8.98434 22.08 9.21834 21.9831 9.39088 21.8106C9.56341 21.638 9.66034 21.404 9.66034 21.16C9.66034 21.038 9.7088 20.921 9.79507 20.8348C9.88133 20.7485 9.99834 20.7 10.1203 20.7C10.2423 20.7 10.3593 20.7485 10.4456 20.8348C10.5319 20.921 10.5803 21.038 10.5803 21.16C10.5803 21.404 10.6773 21.638 10.8498 21.8106C11.0223 21.9831 11.2563 22.08 11.5003 22.08H15.1803C15.3023 22.08 15.4193 22.1285 15.5056 22.2148C15.5919 22.301 15.6403 22.418 15.6403 22.54C15.6403 22.662 15.5919 22.779 15.5056 22.8653C15.4193 22.9516 15.3023 23 15.1803 23Z" fill="#D9D9D9"/>
</svg>
