<svg width="95" height="95" viewBox="0 0 95 95" fill="none" xmlns="http://www.w3.org/2000/svg">
<rect x="0.7" y="0.7" width="93.6" height="93.6" stroke="white" stroke-width="1.4"/>
<path d="M53.5393 38.1967H47.1638V31.7159C47.1638 23.0208 54.0706 16 62.6244 16H69V22.4808C69 31.1758 62.04 38.1967 53.5393 38.1967Z" stroke="white" stroke-width="1.4" stroke-miterlimit="10" stroke-linecap="round" stroke-linejoin="round"/>
<path d="M53.5393 77.9997H47.1638V71.5189C47.1638 62.8239 54.0706 55.803 62.6244 55.803H69V62.2838C69 70.9789 62.04 77.9997 53.5393 77.9997Z" stroke="white" stroke-width="1.4" stroke-miterlimit="10" stroke-linecap="round" stroke-linejoin="round"/>
<path d="M39.4607 60.0156H45.8362V53.5348C45.8362 44.8397 38.9294 37.8188 30.3755 37.8188H24V44.2996C24.0531 52.9947 30.96 60.0156 39.4607 60.0156Z" stroke="white" stroke-width="1.4" stroke-miterlimit="10" stroke-linecap="round" stroke-linejoin="round"/>
<path d="M47.1638 78V37.1169" stroke="white" stroke-width="1.4" stroke-miterlimit="10" stroke-linecap="round" stroke-linejoin="round"/>
</svg>
