<svg width="23" height="21" viewBox="0 0 23 21" fill="none" xmlns="http://www.w3.org/2000/svg">
<path d="M11.9338 5.625V4.5H20.1238L22.1976 2.38875L20.1051 0H11.1838V2.625H3.01258L0.923828 5.01375L2.99383 7.125H11.1838V8.25H3.01258L0.923828 10.6388L2.99383 12.75H11.1838V18H6.30883V21H16.8088V18H11.9338V10.125H20.1238L22.1976 8.01375L20.1051 5.625H11.9338ZM16.0588 18.75V20.25H7.05883V18.75H16.0588ZM11.9338 0.75H19.7638L21.1738 2.35875L19.8088 3.75H11.9338V0.75ZM3.30883 6.375L1.94383 4.98375L3.35383 3.375H11.1838V6.375H3.30883ZM11.1838 12H3.30883L1.94383 10.6088L3.35383 9H11.1838V12ZM19.8088 9.375H11.9338V6.375H19.7638L21.1738 7.98375L19.8088 9.375Z" fill="#D9D9D9"/>
<path d="M9.68372 4.12482H4.05872V4.87482H9.68372V4.12482Z" fill="#D9D9D9"/>
<path d="M9.68372 9.75027H4.05872V10.5003H9.68372V9.75027Z" fill="#D9D9D9"/>
<path d="M19.0588 1.49982H13.4338V2.24982H19.0588V1.49982Z" fill="#D9D9D9"/>
<path d="M19.0588 7.12488H13.4338V7.87488H19.0588V7.12488Z" fill="#D9D9D9"/>
</svg>
