<svg width="98" height="88" viewBox="0 0 98 88" fill="none" xmlns="http://www.w3.org/2000/svg">
<path d="M48.7264 25.6261C55.5267 25.6261 61.0394 20.1133 61.0394 13.313C61.0394 6.51268 55.5267 1 48.7264 1C41.9261 1 36.4133 6.51268 36.4133 13.313C36.4133 20.1133 41.9261 25.6261 48.7264 25.6261Z" stroke="white" stroke-width="1.4" stroke-miterlimit="10" stroke-linecap="round" stroke-linejoin="round"/>
<path d="M84.1365 87C90.9369 87 96.4496 81.4873 96.4496 74.687C96.4496 67.8867 90.9369 62.3739 84.1365 62.3739C77.3362 62.3739 71.8235 67.8867 71.8235 74.687C71.8235 81.4873 77.3362 87 84.1365 87Z" stroke="white" stroke-width="1.4" stroke-miterlimit="10" stroke-linecap="round" stroke-linejoin="round"/>
<path d="M13.3131 87C20.1134 87 25.6261 81.4873 25.6261 74.687C25.6261 67.8867 20.1134 62.3739 13.3131 62.3739C6.51274 62.3739 1 67.8867 1 74.687C1 81.4873 6.51274 87 13.3131 87Z" stroke="white" stroke-width="1.4" stroke-miterlimit="10" stroke-linecap="round" stroke-linejoin="round"/>
<path d="M19.4209 63.9968L42.5198 24.0032" stroke="white" stroke-width="1.4" stroke-miterlimit="10" stroke-linecap="round" stroke-linejoin="round"/>
<path d="M77.9314 63.9968L54.8325 24.0032" stroke="white" stroke-width="1.4" stroke-miterlimit="10" stroke-linecap="round" stroke-linejoin="round"/>
<path d="M25.6279 74.6874H71.7303" stroke="white" stroke-width="1.4" stroke-miterlimit="10" stroke-linecap="round" stroke-linejoin="round"/>
</svg>
